<svg preserveAspectRatio="none" overflow="visible" style="display: block;" width="28" height="28" viewBox="0 0 28 28" fill="none" xmlns="http://www.w3.org/2000/svg">
<g id="ri:whatsapp-fill">
<path id="Vector" d="M14 2.33333C20.4435 2.33333 25.6667 7.5565 25.6667 14C25.6667 20.4435 20.4435 25.6667 14 25.6667C11.9382 25.6702 9.9127 25.1246 8.13168 24.0858L2.33802 25.6667L3.91535 19.8707C2.8758 18.0891 2.32974 16.0627 2.33335 14C2.33335 7.5565 7.55652 2.33333 14 2.33333ZM10.024 8.51667L9.79068 8.526C9.63982 8.53639 9.49242 8.57602 9.35668 8.64267C9.23019 8.71443 9.11467 8.80401 9.01368 8.90867C8.87368 9.0405 8.79435 9.15483 8.70918 9.26567C8.27766 9.82672 8.04532 10.5155 8.04885 11.2233C8.05118 11.795 8.20052 12.3515 8.43385 12.8718C8.91102 13.9242 9.69618 15.0383 10.7322 16.0708C10.9819 16.3193 11.2269 16.569 11.4905 16.8012C12.7779 17.9345 14.3118 18.7518 15.9705 19.1882L16.6332 19.2897C16.849 19.3013 17.0649 19.285 17.2819 19.2745C17.6216 19.2566 17.9533 19.1646 18.2537 19.005C18.4063 18.9261 18.5554 18.8404 18.7005 18.7483C18.7005 18.7483 18.7499 18.7149 18.8464 18.6433C19.0039 18.5267 19.1007 18.4438 19.2314 18.3073C19.3294 18.2062 19.411 18.0888 19.4764 17.955C19.5674 17.7648 19.6584 17.402 19.6957 17.0998C19.7237 16.8688 19.7155 16.7428 19.712 16.6647C19.7074 16.5398 19.6035 16.4103 19.4904 16.3555L18.8114 16.051C18.8114 16.051 17.7964 15.6088 17.1757 15.3265C17.1107 15.2982 17.0411 15.282 16.9704 15.2787C16.8905 15.2703 16.8098 15.2792 16.7337 15.3048C16.6576 15.3304 16.5879 15.372 16.5294 15.4268C16.5235 15.4245 16.4454 15.491 15.6019 16.513C15.5534 16.5781 15.4867 16.6272 15.4103 16.6542C15.3338 16.6812 15.2511 16.6849 15.1725 16.6647C15.0965 16.6444 15.022 16.6187 14.9497 16.5877C14.805 16.527 14.7549 16.5037 14.6557 16.4617C13.9859 16.1699 13.3659 15.7751 12.8182 15.2915C12.6712 15.1632 12.5347 15.0232 12.3947 14.8878C11.9357 14.4482 11.5357 13.951 11.2047 13.4085L11.1359 13.2977C11.0872 13.2228 11.0472 13.1425 11.0169 13.0585C10.9725 12.887 11.088 12.7493 11.088 12.7493C11.088 12.7493 11.3715 12.439 11.5034 12.271C11.6317 12.1077 11.7402 11.949 11.8102 11.8358C11.9479 11.6142 11.991 11.3867 11.9187 11.2105C11.592 10.4125 11.2545 9.61878 10.906 8.82933C10.8372 8.673 10.633 8.561 10.4475 8.53883C10.3845 8.53105 10.3215 8.52483 10.2585 8.52017C10.1019 8.51118 9.94479 8.51274 9.78835 8.52483L10.024 8.51667Z" fill="#FAF9F7"/>
</g>
</svg>
